<svg width="1000" height="1000" viewBox="0 0 1000 1000" fill="none" xmlns="http://www.w3.org/2000/svg">
<g filter="url(#filter0_d_3_2)">
<path d="M686.5 466.388C705.064 455.67 727.936 455.67 746.5 466.388L838.054 519.247C856.619 529.965 868.054 549.773 868.054 571.209V676.927C868.054 698.363 856.619 718.17 838.054 728.888L746.5 781.747C727.936 792.465 705.064 792.465 686.5 781.747L594.946 728.888C576.381 718.17 564.946 698.363 564.946 676.927V571.209C564.946 549.773 576.381 529.965 594.946 519.247L686.5 466.388Z" fill="#424242"/>
<path d="M253.554 466.038C272.118 455.321 294.99 455.321 313.554 466.038L405.109 518.897C423.673 529.615 435.109 549.423 435.109 570.859V676.577C435.109 698.013 423.673 717.82 405.109 728.538L313.554 781.397C294.99 792.115 272.119 792.115 253.554 781.397L162 728.538C143.436 717.82 132 698.013 132 676.577V570.859C132 549.423 143.436 529.615 162 518.897L253.554 466.038Z" fill="#424242"/>
<path d="M469.554 93.0385C488.119 82.3205 510.99 82.3205 529.554 93.0385L621.109 145.897C639.673 156.615 651.109 176.423 651.109 197.859V303.577C651.109 325.013 639.673 344.821 621.109 355.538L529.554 408.397C510.99 419.115 488.119 419.115 469.554 408.397L378 355.538C359.436 344.821 348 325.013 348 303.577V197.859C348 176.423 359.436 156.615 378 145.897L469.554 93.0385Z" fill="#424242"/>
<path d="M686.554 217.038C705.119 206.321 727.99 206.321 746.554 217.038L838.109 269.897C856.673 280.615 868.109 300.423 868.109 321.859V427.577C868.109 449.013 856.673 468.821 838.109 479.538L746.554 532.397C727.99 543.115 705.119 543.115 686.554 532.397L595 479.538C576.436 468.821 565 449.013 565 427.577V321.859C565 300.423 576.436 280.615 595 269.897L686.554 217.038Z" fill="#BDBDBD"/>
<path d="M686.554 217.038C705.119 206.321 727.99 206.321 746.554 217.038L838.109 269.897C856.673 280.615 868.109 300.423 868.109 321.859V427.577C868.109 449.013 856.673 468.821 838.109 479.538L746.554 532.397C727.99 543.115 705.119 543.115 686.554 532.397L595 479.538C576.436 468.821 565 449.013 565 427.577V321.859C565 300.423 576.436 280.615 595 269.897L686.554 217.038Z" fill="#757575"/>
<path d="M253.554 217.038C272.118 206.321 294.99 206.321 313.554 217.038L405.109 269.897C423.673 280.615 435.109 300.423 435.109 321.859V427.577C435.109 449.013 423.673 468.821 405.109 479.538L313.554 532.397C294.99 543.115 272.119 543.115 253.554 532.397L162 479.538C143.436 468.821 132 449.013 132 427.577V321.859C132 300.423 143.436 280.615 162 269.897L253.554 217.038Z" fill="#757575"/>
<path d="M469.554 591.038C488.119 580.321 510.99 580.321 529.554 591.038L621.109 643.897C639.673 654.615 651.109 674.423 651.109 695.859V801.577C651.109 823.013 639.673 842.82 621.109 853.538L529.554 906.397C510.99 917.115 488.119 917.115 469.554 906.397L378 853.538C359.436 842.82 348 823.013 348 801.577V695.859C348 674.423 359.436 654.615 378 643.897L469.554 591.038Z" fill="#757575"/>
<path d="M469.554 354.038C488.119 343.321 510.99 343.321 529.554 354.038L621.109 406.897C639.673 417.615 651.109 437.423 651.109 458.859V564.577C651.109 586.013 639.673 605.82 621.109 616.538L529.554 669.397C510.99 680.115 488.119 680.115 469.554 669.397L378 616.538C359.436 605.82 348 586.013 348 564.577V458.859C348 437.423 359.436 417.615 378 406.897L469.554 354.038Z" fill="#BDBDBD"/>
</g>
<defs>
<filter id="filter0_d_3_2" x="128" y="85" width="744.109" height="837.436" filterUnits="userSpaceOnUse" color-interpolation-filters="sRGB">
<feFlood flood-opacity="0" result="BackgroundImageFix"/>
<feColorMatrix in="SourceAlpha" type="matrix" values="0 0 0 0 0 0 0 0 0 0 0 0 0 0 0 0 0 0 127 0" result="hardAlpha"/>
<feOffset dy="4"/>
<feGaussianBlur stdDeviation="2"/>
<feComposite in2="hardAlpha" operator="out"/>
<feColorMatrix type="matrix" values="0 0 0 0 0 0 0 0 0 0 0 0 0 0 0 0 0 0 0.25 0"/>
<feBlend mode="normal" in2="BackgroundImageFix" result="effect1_dropShadow_3_2"/>
<feBlend mode="normal" in="SourceGraphic" in2="effect1_dropShadow_3_2" result="shape"/>
</filter>
</defs>
</svg>
