<svg width="3210" height="1000" viewBox="0 0 3210 1000" fill="none" xmlns="http://www.w3.org/2000/svg">
<path d="M751.5 466.388C770.064 455.67 792.936 455.67 811.5 466.388L903.054 519.247C921.619 529.965 933.054 549.773 933.054 571.209V676.927C933.054 698.363 921.619 718.17 903.054 728.888L811.5 781.747C792.936 792.465 770.064 792.465 751.5 781.747L659.946 728.888C641.381 718.17 629.946 698.363 629.946 676.927V571.209C629.946 549.773 641.381 529.965 659.946 519.247L751.5 466.388Z" fill="#424242"/>
<path d="M318.554 466.038C337.118 455.321 359.99 455.321 378.554 466.038L470.109 518.897C488.673 529.615 500.109 549.423 500.109 570.859V676.577C500.109 698.013 488.673 717.82 470.109 728.538L378.554 781.397C359.99 792.115 337.119 792.115 318.554 781.397L227 728.538C208.436 717.82 197 698.013 197 676.577V570.859C197 549.423 208.436 529.615 227 518.897L318.554 466.038Z" fill="#424242"/>
<path d="M534.554 93.0385C553.119 82.3205 575.99 82.3205 594.554 93.0385L686.109 145.897C704.673 156.615 716.109 176.423 716.109 197.859V303.577C716.109 325.013 704.673 344.821 686.109 355.538L594.554 408.397C575.99 419.115 553.119 419.115 534.554 408.397L443 355.538C424.436 344.821 413 325.013 413 303.577V197.859C413 176.423 424.436 156.615 443 145.897L534.554 93.0385Z" fill="#424242"/>
<path d="M751.554 217.038C770.119 206.321 792.99 206.321 811.554 217.038L903.109 269.897C921.673 280.615 933.109 300.423 933.109 321.859V427.577C933.109 449.013 921.673 468.821 903.109 479.538L811.554 532.397C792.99 543.115 770.119 543.115 751.554 532.397L660 479.538C641.436 468.821 630 449.013 630 427.577V321.859C630 300.423 641.436 280.615 660 269.897L751.554 217.038Z" fill="#BDBDBD"/>
<path d="M751.554 217.038C770.119 206.321 792.99 206.321 811.554 217.038L903.109 269.897C921.673 280.615 933.109 300.423 933.109 321.859V427.577C933.109 449.013 921.673 468.821 903.109 479.538L811.554 532.397C792.99 543.115 770.119 543.115 751.554 532.397L660 479.538C641.436 468.821 630 449.013 630 427.577V321.859C630 300.423 641.436 280.615 660 269.897L751.554 217.038Z" fill="#757575"/>
<path d="M318.554 217.038C337.118 206.321 359.99 206.321 378.554 217.038L470.109 269.897C488.673 280.615 500.109 300.423 500.109 321.859V427.577C500.109 449.013 488.673 468.821 470.109 479.538L378.554 532.397C359.99 543.115 337.119 543.115 318.554 532.397L227 479.538C208.436 468.821 197 449.013 197 427.577V321.859C197 300.423 208.436 280.615 227 269.897L318.554 217.038Z" fill="#757575"/>
<path d="M534.554 591.038C553.119 580.321 575.99 580.321 594.554 591.038L686.109 643.897C704.673 654.615 716.109 674.423 716.109 695.859V801.577C716.109 823.013 704.673 842.82 686.109 853.538L594.554 906.397C575.99 917.115 553.119 917.115 534.554 906.397L443 853.538C424.436 842.82 413 823.013 413 801.577V695.859C413 674.423 424.436 654.615 443 643.897L534.554 591.038Z" fill="#757575"/>
<path d="M534.554 354.038C553.119 343.321 575.99 343.321 594.554 354.038L686.109 406.897C704.673 417.615 716.109 437.423 716.109 458.859V564.577C716.109 586.013 704.673 605.82 686.109 616.538L594.554 669.397C575.99 680.115 553.119 680.115 534.554 669.397L443 616.538C424.436 605.82 413 586.013 413 564.577V458.859C413 437.423 424.436 417.615 443 406.897L534.554 354.038Z" fill="#BDBDBD"/>
<path d="M1175.95 385.4C1196.05 385.4 1216.45 389.9 1237.15 398.9L1225.9 426.8C1210.6 420.2 1194.25 416.9 1176.85 416.9C1159.75 416.9 1146.1 423.35 1135.9 436.25C1126 449.15 1121.05 468.05 1121.05 492.95C1121.05 517.85 1126.3 536.9 1136.8 550.1C1147.3 563.3 1161.1 569.9 1178.2 569.9C1195.3 569.9 1213 565.7 1231.3 557.3L1239.85 587C1218.85 596.6 1197.55 601.4 1175.95 601.4C1148.05 601.4 1125.25 591.35 1107.55 571.25C1090.15 550.85 1081.45 524.75 1081.45 492.95C1081.45 460.85 1090.15 434.9 1107.55 415.1C1125.25 395.3 1148.05 385.4 1175.95 385.4Z" fill="#BDBDBD"/>
<path d="M1365 414.65C1353.6 414.65 1343.7 417.2 1335.3 422.3C1327.2 427.4 1321.2 434 1317.3 442.1C1310.1 457.4 1306.5 473.75 1306.5 491.15C1306.5 545.15 1325.25 572.15 1362.75 572.15C1374.15 572.15 1383.9 569.6 1392 564.5C1400.1 559.4 1406.25 552.8 1410.45 544.7C1417.65 529.7 1421.25 513.35 1421.25 495.65C1421.25 441.65 1402.5 414.65 1365 414.65ZM1365 385.4C1398.3 385.4 1422.6 395.75 1437.9 416.45C1453.2 437.15 1460.85 464.15 1460.85 497.45C1460.85 521.45 1454.55 543.65 1441.95 564.05C1435.05 575.15 1424.7 584.15 1410.9 591.05C1397.1 597.95 1380.6 601.4 1361.4 601.4C1328.4 601.4 1304.4 591.5 1289.4 571.7C1274.4 551.9 1266.9 525.35 1266.9 492.05C1266.9 472.55 1269.9 456.05 1275.9 442.55C1282.2 429.05 1288.8 418.7 1295.7 411.5C1302.6 404 1312.05 397.85 1324.05 393.05C1336.05 387.95 1349.7 385.4 1365 385.4Z" fill="#BDBDBD"/>
<path d="M1547.11 414.2C1569.31 395 1593.91 385.4 1620.91 385.4C1647.91 385.4 1666.36 395.9 1676.26 416.9C1699.96 395.9 1724.86 385.4 1750.96 385.4C1770.16 385.4 1785.31 390.5 1796.41 400.7C1807.81 410.9 1813.51 424.25 1813.51 440.75V596H1775.26V442.55C1775.26 434.75 1772.41 428.75 1766.71 424.55C1761.01 420.35 1753.36 418.25 1743.76 418.25C1724.26 418.25 1703.41 426.2 1681.21 442.1V596H1642.96V442.55C1642.96 434.75 1640.11 428.75 1634.41 424.55C1628.71 420.35 1621.06 418.25 1611.46 418.25C1591.36 418.25 1570.81 425.9 1549.81 441.2V596H1511.56V390.8H1535.86L1547.11 414.2Z" fill="#BDBDBD"/>
<path d="M1955.06 570.8C1977.56 570.8 1994.96 563.15 2007.26 547.85C2019.56 532.55 2025.71 513.95 2025.71 492.05C2025.71 469.85 2020.31 452 2009.51 438.5C1999.01 425 1984.46 418.25 1965.86 418.25C1958.66 418.25 1950.11 420.35 1940.21 424.55C1930.31 428.75 1921.46 434.3 1913.66 441.2V562.7C1927.76 568.1 1941.56 570.8 1955.06 570.8ZM1913.66 699.5H1876.31V390.8H1900.61L1910.96 414.2C1932.86 395 1956.11 385.4 1980.71 385.4C2005.31 385.4 2025.41 395 2041.01 414.2C2056.61 433.4 2064.41 458.45 2064.41 489.35C2064.41 519.95 2055.26 546.35 2036.96 568.55C2018.96 590.45 1993.16 601.4 1959.56 601.4C1944.56 601.4 1929.26 599.3 1913.66 595.1V699.5Z" fill="#BDBDBD"/>
<path d="M2221.11 426.8C2205.81 420.2 2191.41 416.9 2177.91 416.9C2151.81 416.9 2138.76 424.85 2138.76 440.75C2138.76 454.55 2156.16 467.9 2190.96 480.8C2203.86 485.6 2215.71 493.1 2226.51 503.3C2237.61 513.5 2243.16 525.8 2243.16 540.2C2243.16 560.9 2236.41 576.35 2222.91 586.55C2209.41 596.45 2190.66 601.4 2166.66 601.4C2142.66 601.4 2119.26 594.8 2096.46 581.6L2107.71 553.7C2126.61 564.5 2148.06 569.9 2172.06 569.9C2182.26 569.9 2190.51 567.8 2196.81 563.6C2203.11 559.1 2206.26 553.1 2206.26 545.6C2206.26 538.1 2202.66 531.65 2195.46 526.25C2188.26 520.85 2179.56 516.05 2169.36 511.85C2159.16 507.65 2148.96 503.15 2138.76 498.35C2128.56 493.25 2119.86 486.2 2112.66 477.2C2105.46 468.2 2101.86 457.55 2101.86 445.25C2101.86 426.05 2108.31 411.35 2121.21 401.15C2134.41 390.65 2151.06 385.4 2171.16 385.4C2191.26 385.4 2211.66 389.9 2232.36 398.9L2221.11 426.8Z" fill="#BDBDBD"/>
<path d="M2369.07 385.4C2389.17 385.4 2409.57 389.9 2430.27 398.9L2419.02 426.8C2403.72 420.2 2387.37 416.9 2369.97 416.9C2352.87 416.9 2339.22 423.35 2329.02 436.25C2319.12 449.15 2314.17 468.05 2314.17 492.95C2314.17 517.85 2319.42 536.9 2329.92 550.1C2340.42 563.3 2354.22 569.9 2371.32 569.9C2388.42 569.9 2406.12 565.7 2424.42 557.3L2432.97 587C2411.97 596.6 2390.67 601.4 2369.07 601.4C2341.17 601.4 2318.37 591.35 2300.67 571.25C2283.27 550.85 2274.57 524.75 2274.57 492.95C2274.57 460.85 2283.27 434.9 2300.67 415.1C2318.37 395.3 2341.17 385.4 2369.07 385.4Z" fill="#BDBDBD"/>
<path d="M2558.11 414.65C2546.71 414.65 2536.81 417.2 2528.41 422.3C2520.31 427.4 2514.31 434 2510.41 442.1C2503.21 457.4 2499.61 473.75 2499.61 491.15C2499.61 545.15 2518.36 572.15 2555.86 572.15C2567.26 572.15 2577.01 569.6 2585.11 564.5C2593.21 559.4 2599.36 552.8 2603.56 544.7C2610.76 529.7 2614.36 513.35 2614.36 495.65C2614.36 441.65 2595.61 414.65 2558.11 414.65ZM2558.11 385.4C2591.41 385.4 2615.71 395.75 2631.01 416.45C2646.31 437.15 2653.96 464.15 2653.96 497.45C2653.96 521.45 2647.66 543.65 2635.06 564.05C2628.16 575.15 2617.81 584.15 2604.01 591.05C2590.21 597.95 2573.71 601.4 2554.51 601.4C2521.51 601.4 2497.51 591.5 2482.51 571.7C2467.51 551.9 2460.01 525.35 2460.01 492.05C2460.01 472.55 2463.01 456.05 2469.01 442.55C2475.31 429.05 2481.91 418.7 2488.81 411.5C2495.71 404 2505.16 397.85 2517.16 393.05C2529.16 387.95 2542.81 385.4 2558.11 385.4Z" fill="#BDBDBD"/>
<path d="M2704.68 390.8H2728.98L2740.23 426.8H2742.03C2758.53 405.5 2781.18 392.6 2809.98 388.1L2814.03 423.65C2799.93 424.55 2786.28 428.15 2773.08 434.45C2759.88 440.75 2749.83 449.15 2742.93 459.65V596H2704.68V390.8Z" fill="#BDBDBD"/>
<path d="M2928.97 569.9C2950.57 569.9 2972.17 563.45 2993.77 550.55L3006.82 577.55C2981.62 593.45 2954.62 601.4 2925.82 601.4C2897.32 601.4 2874.67 592.4 2857.87 574.4C2841.07 556.1 2832.67 529.85 2832.67 495.65C2832.67 461.45 2841.37 434.6 2858.77 415.1C2876.17 395.3 2899.27 385.4 2928.07 385.4C2954.17 385.4 2974.72 393.5 2989.72 409.7C2996.02 416.3 3001.27 425.9 3005.47 438.5C3009.97 451.1 3012.22 465.95 3012.22 483.05L2998.27 498.8H2870.92C2871.82 546.2 2891.17 569.9 2928.97 569.9ZM2974.42 470.45C2974.42 453.65 2970.07 440.15 2961.37 429.95C2952.67 419.75 2941.12 414.65 2926.72 414.65C2912.62 414.65 2900.62 419.75 2890.72 429.95C2880.82 439.85 2874.82 453.35 2872.72 470.45H2974.42Z" fill="#BDBDBD"/>
</svg>
