<svg width="737" height="830" viewBox="0 0 737 830" fill="none" xmlns="http://www.w3.org/2000/svg">
<path d="M554.5 381.67C573.064 370.952 595.936 370.952 614.5 381.67L706.054 434.529C724.619 445.247 736.054 465.055 736.054 486.491V592.209C736.054 613.645 724.619 633.452 706.054 644.17L614.5 697.029C595.936 707.747 573.064 707.747 554.5 697.029L462.946 644.17C444.381 633.452 432.946 613.645 432.946 592.209V486.491C432.946 465.055 444.381 445.247 462.946 434.529L554.5 381.67Z" fill="#303030"/>
<path d="M121.554 381.32C140.118 370.602 162.99 370.602 181.554 381.32L273.109 434.179C291.673 444.897 303.109 464.705 303.109 486.141V591.859C303.109 613.295 291.673 633.102 273.109 643.82L181.554 696.679C162.99 707.397 140.119 707.397 121.554 696.679L30 643.82C11.4359 633.102 0 613.295 0 591.859V486.141C0 464.705 11.4359 444.897 30 434.179L121.554 381.32Z" fill="#303030"/>
<path d="M337.554 8.32046C356.119 -2.39751 378.99 -2.39751 397.554 8.32046L489.109 61.1794C507.673 71.8974 519.109 91.705 519.109 113.141V218.859C519.109 240.295 507.673 260.102 489.109 270.82L397.554 323.679C378.99 334.397 356.119 334.397 337.554 323.679L246 270.82C227.436 260.102 216 240.295 216 218.859V113.141C216 91.705 227.436 71.8974 246 61.1794L337.554 8.32046Z" fill="#303030"/>
<path d="M554.554 132.32C573.119 121.602 595.99 121.602 614.554 132.32L706.109 185.179C724.673 195.897 736.109 215.705 736.109 237.141V342.859C736.109 364.295 724.673 384.102 706.109 394.82L614.554 447.679C595.99 458.397 573.119 458.397 554.554 447.679L463 394.82C444.436 384.102 433 364.295 433 342.859V237.141C433 215.705 444.436 195.897 463 185.179L554.554 132.32Z" fill="#808080"/>
<path d="M554.554 132.32C573.119 121.602 595.99 121.602 614.554 132.32L706.109 185.179C724.673 195.897 736.109 215.705 736.109 237.141V342.859C736.109 364.295 724.673 384.102 706.109 394.82L614.554 447.679C595.99 458.397 573.119 458.397 554.554 447.679L463 394.82C444.436 384.102 433 364.295 433 342.859V237.141C433 215.705 444.436 195.897 463 185.179L554.554 132.32Z" fill="#505050"/>
<path d="M121.554 132.32C140.118 121.602 162.99 121.602 181.554 132.32L273.109 185.179C291.673 195.897 303.109 215.705 303.109 237.141V342.859C303.109 364.295 291.673 384.102 273.109 394.82L181.554 447.679C162.99 458.397 140.119 458.397 121.554 447.679L30 394.82C11.4359 384.102 0 364.295 0 342.859V237.141C0 215.705 11.4359 195.897 30 185.179L121.554 132.32Z" fill="#505050"/>
<path d="M337.554 506.32C356.119 495.602 378.99 495.602 397.554 506.32L489.109 559.179C507.673 569.897 519.109 589.705 519.109 611.141V716.859C519.109 738.295 507.673 758.102 489.109 768.82L397.554 821.679C378.99 832.397 356.119 832.397 337.554 821.679L246 768.82C227.436 758.102 216 738.295 216 716.859V611.141C216 589.705 227.436 569.897 246 559.179L337.554 506.32Z" fill="#505050"/>
<path d="M337.554 269.32C356.119 258.602 378.99 258.602 397.554 269.32L489.109 322.179C507.673 332.897 519.109 352.705 519.109 374.141V479.859C519.109 501.295 507.673 521.102 489.109 531.82L397.554 584.679C378.99 595.397 356.119 595.397 337.554 584.679L246 531.82C227.436 521.102 216 501.295 216 479.859V374.141C216 352.705 227.436 332.897 246 322.179L337.554 269.32Z" fill="#808080"/>
</svg>
