<svg width="3210" height="1000" viewBox="0 0 3210 1000" fill="none" xmlns="http://www.w3.org/2000/svg">
<path d="M274.04 551.844C285.558 545.19 299.749 545.19 311.267 551.844L368.072 584.657C379.59 591.311 386.686 603.607 386.686 616.913V682.54C386.686 695.847 379.59 708.143 368.072 714.796L311.267 747.609C299.749 754.263 285.558 754.263 274.04 747.609L217.234 714.796C205.716 708.143 198.62 695.847 198.62 682.54V616.913C198.62 603.607 205.716 591.311 217.234 584.657L274.04 551.844Z" fill="#757575"/>
<path d="M408.058 635.648C419.576 628.994 433.767 628.994 445.285 635.648L502.091 668.461C513.609 675.115 520.704 687.411 520.704 700.717V766.344C520.704 779.651 513.609 791.947 502.091 798.6L445.285 831.414C433.767 838.067 419.576 838.067 408.058 831.414L351.252 798.6C339.734 791.947 332.639 779.651 332.639 766.344V700.717C332.639 687.411 339.734 675.115 351.252 668.461L408.058 635.648Z" fill="#BDBDBD"/>
<path d="M811.354 559.293C822.872 552.64 837.063 552.64 848.581 559.293L905.386 592.106C916.905 598.76 924 611.056 924 624.363V689.989C924 703.296 916.905 715.592 905.386 722.245L848.581 755.059C837.063 761.712 822.872 761.712 811.354 755.059L754.548 722.245C743.03 715.592 735.935 703.296 735.935 689.989V624.363C735.935 611.056 743.03 598.76 754.548 592.106L811.354 559.293Z" fill="#757575"/>
<path d="M676.715 636.269C688.233 629.615 702.424 629.615 713.942 636.269L770.748 669.082C782.266 675.735 789.361 688.031 789.361 701.338V766.965C789.361 780.272 782.266 792.568 770.748 799.221L713.942 832.034C702.424 838.688 688.233 838.688 676.715 832.034L619.909 799.221C608.391 792.568 601.296 780.272 601.296 766.965V701.338C601.296 688.031 608.391 675.735 619.909 669.082L676.715 636.269Z" fill="#BDBDBD"/>
<path d="M542.076 713.244C553.594 706.591 567.785 706.591 579.303 713.244L636.109 746.058C647.627 752.711 654.723 765.007 654.723 778.314V843.94C654.723 857.247 647.627 869.543 636.109 876.197L579.303 909.01C567.785 915.663 553.594 915.663 542.076 909.01L485.271 876.197C473.753 869.543 466.657 857.247 466.657 843.94V778.314C466.657 765.007 473.753 752.711 485.271 746.058L542.076 713.244Z" fill="#424242"/>
<path d="M273.419 404.721C284.937 398.068 299.128 398.068 310.646 404.721L367.452 437.534C378.97 444.188 386.065 456.484 386.065 469.791V535.417C386.065 548.724 378.97 561.02 367.452 567.673L310.646 600.487C299.128 607.14 284.937 607.14 273.419 600.487L216.614 567.673C205.095 561.02 198 548.724 198 535.417V469.791C198 456.484 205.095 444.188 216.614 437.534L273.419 404.721Z" fill="#BDBDBD"/>
<path d="M542.076 89.9901C553.594 83.3367 567.785 83.3366 579.303 89.9901L636.109 122.803C647.627 129.457 654.723 141.753 654.723 155.06V220.686C654.723 233.993 647.627 246.289 636.109 252.942L579.303 285.756C567.785 292.409 553.594 292.409 542.076 285.756L485.271 252.942C473.753 246.289 466.657 233.993 466.657 220.686V155.06C466.657 141.753 473.753 129.457 485.271 122.803L542.076 89.9901Z" fill="#757575"/>
<path d="M407.437 174.415C418.956 167.762 433.147 167.762 444.665 174.415L501.47 207.228C512.988 213.882 520.084 226.178 520.084 239.484V305.111C520.084 318.418 512.988 330.714 501.47 337.367L444.665 370.181C433.147 376.834 418.956 376.834 407.437 370.181L350.632 337.367C339.114 330.714 332.018 318.418 332.018 305.111V239.484C332.018 226.178 339.114 213.882 350.632 207.228L407.437 174.415Z" fill="#BDBDBD"/>
<path d="M273.419 250.149C284.937 243.496 299.128 243.496 310.646 250.149L367.452 282.962C378.97 289.616 386.065 301.912 386.065 315.219V380.845C386.065 394.152 378.97 406.448 367.452 413.101L310.646 445.915C299.128 452.568 284.937 452.568 273.419 445.915L216.614 413.101C205.095 406.448 198 394.152 198 380.845V315.219C198 301.912 205.095 289.616 216.614 282.962L273.419 250.149Z" fill="#424242"/>
<path d="M407.437 488.525C418.956 481.872 433.147 481.872 444.665 488.525L501.47 521.338C512.988 527.992 520.084 540.288 520.084 553.595V619.221C520.084 632.528 512.988 644.824 501.47 651.477L444.665 684.291C433.147 690.944 418.956 690.944 407.437 684.291L350.632 651.477C339.114 644.824 332.018 632.528 332.018 619.221V553.595C332.018 540.288 339.114 527.992 350.632 521.338L407.437 488.525Z" fill="#424242"/>
<path d="M676.094 173.794C687.613 167.141 701.804 167.141 713.322 173.794L770.127 206.607C781.645 213.261 788.741 225.557 788.741 238.864V304.49C788.741 317.797 781.645 330.093 770.127 336.747L713.322 369.56C701.804 376.213 687.613 376.213 676.094 369.56L619.289 336.747C607.771 330.093 600.675 317.797 600.675 304.49V238.864C600.675 225.557 607.771 213.261 619.289 206.607L676.094 173.794Z" fill="#BDBDBD"/>
<path d="M541.456 258.219C552.974 251.566 567.165 251.566 578.683 258.219L635.488 291.032C647.007 297.686 654.102 309.982 654.102 323.289V388.915C654.102 402.222 647.007 414.518 635.488 421.171L578.683 453.985C567.165 460.638 552.974 460.638 541.456 453.985L484.65 421.171C473.132 414.518 466.037 402.222 466.037 388.915V323.289C466.037 309.982 473.132 297.686 484.65 291.032L541.456 258.219Z" fill="#424242"/>
<path d="M810.733 412.17C822.251 405.517 836.442 405.517 847.961 412.17L904.766 444.984C916.284 451.637 923.38 463.933 923.38 477.24V542.866C923.38 556.173 916.284 568.469 904.766 575.123L847.961 607.936C836.442 614.589 822.251 614.589 810.733 607.936L753.928 575.123C742.41 568.469 735.314 556.173 735.314 542.866V477.24C735.314 463.933 742.41 451.637 753.928 444.984L810.733 412.17Z" fill="#BDBDBD"/>
<path d="M676.094 489.146C687.613 482.492 701.804 482.492 713.322 489.146L770.127 521.959C781.645 528.613 788.741 540.909 788.741 554.215V619.842C788.741 633.149 781.645 645.445 770.127 652.098L713.322 684.912C701.804 691.565 687.613 691.565 676.094 684.912L619.289 652.098C607.771 645.445 600.675 633.149 600.675 619.842V554.215C600.675 540.909 607.771 528.613 619.289 521.959L676.094 489.146Z" fill="#424242"/>
<path d="M810.733 257.598C822.251 250.945 836.442 250.945 847.961 257.598L904.766 290.412C916.284 297.065 923.38 309.361 923.38 322.668V388.294C923.38 401.601 916.284 413.897 904.766 420.551L847.961 453.364C836.442 460.017 822.251 460.017 810.733 453.364L753.928 420.551C742.41 413.897 735.314 401.601 735.314 388.294V322.668C735.314 309.361 742.41 297.065 753.928 290.412L810.733 257.598Z" fill="#424242"/>
<path d="M676.094 342.023C687.613 335.37 701.804 335.37 713.322 342.023L770.127 374.836C781.645 381.49 788.741 393.786 788.741 407.093V472.719C788.741 486.026 781.645 498.322 770.127 504.976L713.322 537.789C701.804 544.442 687.613 544.442 676.094 537.789L619.289 504.976C607.771 498.322 600.675 486.026 600.675 472.719V407.093C600.675 393.786 607.771 381.49 619.289 374.836L676.094 342.023Z" fill="#757575"/>
<path d="M541.456 566.121C552.974 559.468 567.165 559.468 578.683 566.121L635.488 598.935C647.007 605.588 654.102 617.884 654.102 631.191V696.818C654.102 710.124 647.007 722.421 635.488 729.074L578.683 761.887C567.165 768.541 552.974 768.541 541.456 761.887L484.65 729.074C473.132 722.421 466.037 710.124 466.037 696.818V631.191C466.037 617.884 473.132 605.588 484.65 598.935L541.456 566.121Z" fill="#757575"/>
<path d="M407.437 333.953C418.956 327.3 433.147 327.3 444.665 333.953L501.47 366.766C512.988 373.42 520.084 385.716 520.084 399.023V464.649C520.084 477.956 512.988 490.252 501.47 496.905L444.665 529.719C433.147 536.372 418.956 536.372 407.437 529.719L350.632 496.905C339.114 490.252 332.018 477.956 332.018 464.649V399.023C332.018 385.716 339.114 373.42 350.632 366.766L407.437 333.953Z" fill="#757575"/>
<path d="M541.456 418.999C552.974 412.345 567.165 412.345 578.683 418.999L635.488 451.812C647.007 458.465 654.102 470.761 654.102 484.068V549.695C654.102 563.002 647.007 575.298 635.488 581.951L578.683 614.764C567.165 621.418 552.974 621.418 541.456 614.764L484.65 581.951C473.132 575.298 466.037 563.002 466.037 549.695V484.068C466.037 470.761 473.132 458.465 484.65 451.812L541.456 418.999Z" fill="#BDBDBD"/>
<path d="M1176.5 398C1196.6 398 1217 402.5 1237.7 411.5L1226.45 439.4C1211.15 432.8 1194.8 429.5 1177.4 429.5C1160.3 429.5 1146.65 435.95 1136.45 448.85C1126.55 461.75 1121.6 480.65 1121.6 505.55C1121.6 530.45 1126.85 549.5 1137.35 562.7C1147.85 575.9 1161.65 582.5 1178.75 582.5C1195.85 582.5 1213.55 578.3 1231.85 569.9L1240.4 599.6C1219.4 609.2 1198.1 614 1176.5 614C1148.6 614 1125.8 603.95 1108.1 583.85C1090.7 563.45 1082 537.35 1082 505.55C1082 473.45 1090.7 447.5 1108.1 427.7C1125.8 407.9 1148.6 398 1176.5 398Z" fill="#BDBDBD"/>
<path d="M1365.55 427.25C1354.15 427.25 1344.25 429.8 1335.85 434.9C1327.75 440 1321.75 446.6 1317.85 454.7C1310.65 470 1307.05 486.35 1307.05 503.75C1307.05 557.75 1325.8 584.75 1363.3 584.75C1374.7 584.75 1384.45 582.2 1392.55 577.1C1400.65 572 1406.8 565.4 1411 557.3C1418.2 542.3 1421.8 525.95 1421.8 508.25C1421.8 454.25 1403.05 427.25 1365.55 427.25ZM1365.55 398C1398.85 398 1423.15 408.35 1438.45 429.05C1453.75 449.75 1461.4 476.75 1461.4 510.05C1461.4 534.05 1455.1 556.25 1442.5 576.65C1435.6 587.75 1425.25 596.75 1411.45 603.65C1397.65 610.55 1381.15 614 1361.95 614C1328.95 614 1304.95 604.1 1289.95 584.3C1274.95 564.5 1267.45 537.95 1267.45 504.65C1267.45 485.15 1270.45 468.65 1276.45 455.15C1282.75 441.65 1289.35 431.3 1296.25 424.1C1303.15 416.6 1312.6 410.45 1324.6 405.65C1336.6 400.55 1350.25 398 1365.55 398Z" fill="#BDBDBD"/>
<path d="M1547.66 426.8C1569.86 407.6 1594.46 398 1621.46 398C1648.46 398 1666.91 408.5 1676.81 429.5C1700.51 408.5 1725.41 398 1751.51 398C1770.71 398 1785.86 403.1 1796.96 413.3C1808.36 423.5 1814.06 436.85 1814.06 453.35V608.6H1775.81V455.15C1775.81 447.35 1772.96 441.35 1767.26 437.15C1761.56 432.95 1753.91 430.85 1744.31 430.85C1724.81 430.85 1703.96 438.8 1681.76 454.7V608.6H1643.51V455.15C1643.51 447.35 1640.66 441.35 1634.96 437.15C1629.26 432.95 1621.61 430.85 1612.01 430.85C1591.91 430.85 1571.36 438.5 1550.36 453.8V608.6H1512.11V403.4H1536.41L1547.66 426.8Z" fill="#BDBDBD"/>
<path d="M1955.61 583.4C1978.11 583.4 1995.51 575.75 2007.81 560.45C2020.11 545.15 2026.26 526.55 2026.26 504.65C2026.26 482.45 2020.86 464.6 2010.06 451.1C1999.56 437.6 1985.01 430.85 1966.41 430.85C1959.21 430.85 1950.66 432.95 1940.76 437.15C1930.86 441.35 1922.01 446.9 1914.21 453.8V575.3C1928.31 580.7 1942.11 583.4 1955.61 583.4ZM1914.21 712.1H1876.86V403.4H1901.16L1911.51 426.8C1933.41 407.6 1956.66 398 1981.26 398C2005.86 398 2025.96 407.6 2041.56 426.8C2057.16 446 2064.96 471.05 2064.96 501.95C2064.96 532.55 2055.81 558.95 2037.51 581.15C2019.51 603.05 1993.71 614 1960.11 614C1945.11 614 1929.81 611.9 1914.21 607.7V712.1Z" fill="#BDBDBD"/>
<path d="M2221.66 439.4C2206.36 432.8 2191.96 429.5 2178.46 429.5C2152.36 429.5 2139.31 437.45 2139.31 453.35C2139.31 467.15 2156.71 480.5 2191.51 493.4C2204.41 498.2 2216.26 505.7 2227.06 515.9C2238.16 526.1 2243.71 538.4 2243.71 552.8C2243.71 573.5 2236.96 588.95 2223.46 599.15C2209.96 609.05 2191.21 614 2167.21 614C2143.21 614 2119.81 607.4 2097.01 594.2L2108.26 566.3C2127.16 577.1 2148.61 582.5 2172.61 582.5C2182.81 582.5 2191.06 580.4 2197.36 576.2C2203.66 571.7 2206.81 565.7 2206.81 558.2C2206.81 550.7 2203.21 544.25 2196.01 538.85C2188.81 533.45 2180.11 528.65 2169.91 524.45C2159.71 520.25 2149.51 515.75 2139.31 510.95C2129.11 505.85 2120.41 498.8 2113.21 489.8C2106.01 480.8 2102.41 470.15 2102.41 457.85C2102.41 438.65 2108.86 423.95 2121.76 413.75C2134.96 403.25 2151.61 398 2171.71 398C2191.81 398 2212.21 402.5 2232.91 411.5L2221.66 439.4Z" fill="#BDBDBD"/>
<path d="M2369.62 398C2389.72 398 2410.12 402.5 2430.82 411.5L2419.57 439.4C2404.27 432.8 2387.92 429.5 2370.52 429.5C2353.42 429.5 2339.77 435.95 2329.57 448.85C2319.67 461.75 2314.72 480.65 2314.72 505.55C2314.72 530.45 2319.97 549.5 2330.47 562.7C2340.97 575.9 2354.77 582.5 2371.87 582.5C2388.97 582.5 2406.67 578.3 2424.97 569.9L2433.52 599.6C2412.52 609.2 2391.22 614 2369.62 614C2341.72 614 2318.92 603.95 2301.22 583.85C2283.82 563.45 2275.12 537.35 2275.12 505.55C2275.12 473.45 2283.82 447.5 2301.22 427.7C2318.92 407.9 2341.72 398 2369.62 398Z" fill="#BDBDBD"/>
<path d="M2558.66 427.25C2547.26 427.25 2537.36 429.8 2528.96 434.9C2520.86 440 2514.86 446.6 2510.96 454.7C2503.76 470 2500.16 486.35 2500.16 503.75C2500.16 557.75 2518.91 584.75 2556.41 584.75C2567.81 584.75 2577.56 582.2 2585.66 577.1C2593.76 572 2599.91 565.4 2604.11 557.3C2611.31 542.3 2614.91 525.95 2614.91 508.25C2614.91 454.25 2596.16 427.25 2558.66 427.25ZM2558.66 398C2591.96 398 2616.26 408.35 2631.56 429.05C2646.86 449.75 2654.51 476.75 2654.51 510.05C2654.51 534.05 2648.21 556.25 2635.61 576.65C2628.71 587.75 2618.36 596.75 2604.56 603.65C2590.76 610.55 2574.26 614 2555.06 614C2522.06 614 2498.06 604.1 2483.06 584.3C2468.06 564.5 2460.56 537.95 2460.56 504.65C2460.56 485.15 2463.56 468.65 2469.56 455.15C2475.86 441.65 2482.46 431.3 2489.36 424.1C2496.26 416.6 2505.71 410.45 2517.71 405.65C2529.71 400.55 2543.36 398 2558.66 398Z" fill="#BDBDBD"/>
<path d="M2705.23 403.4H2729.53L2740.78 439.4H2742.58C2759.08 418.1 2781.73 405.2 2810.53 400.7L2814.58 436.25C2800.48 437.15 2786.83 440.75 2773.63 447.05C2760.43 453.35 2750.38 461.75 2743.48 472.25V608.6H2705.23V403.4Z" fill="#BDBDBD"/>
<path d="M2929.52 582.5C2951.12 582.5 2972.72 576.05 2994.32 563.15L3007.37 590.15C2982.17 606.05 2955.17 614 2926.37 614C2897.87 614 2875.22 605 2858.42 587C2841.62 568.7 2833.22 542.45 2833.22 508.25C2833.22 474.05 2841.92 447.2 2859.32 427.7C2876.72 407.9 2899.82 398 2928.62 398C2954.72 398 2975.27 406.1 2990.27 422.3C2996.57 428.9 3001.82 438.5 3006.02 451.1C3010.52 463.7 3012.77 478.55 3012.77 495.65L2998.82 511.4H2871.47C2872.37 558.8 2891.72 582.5 2929.52 582.5ZM2974.97 483.05C2974.97 466.25 2970.62 452.75 2961.92 442.55C2953.22 432.35 2941.67 427.25 2927.27 427.25C2913.17 427.25 2901.17 432.35 2891.27 442.55C2881.37 452.45 2875.37 465.95 2873.27 483.05H2974.97Z" fill="#BDBDBD"/>
</svg>
