<svg width="2816" height="830" viewBox="0 0 2816 830" fill="none" xmlns="http://www.w3.org/2000/svg">
<path d="M554.5 381.388C573.064 370.67 595.936 370.67 614.5 381.388L706.054 434.247C724.619 444.965 736.054 464.773 736.054 486.209V591.927C736.054 613.363 724.619 633.17 706.054 643.888L614.5 696.747C595.936 707.465 573.064 707.465 554.5 696.747L462.946 643.888C444.381 633.17 432.946 613.363 432.946 591.927V486.209C432.946 464.773 444.381 444.965 462.946 434.247L554.5 381.388Z" fill="#303030"/>
<path d="M121.554 381.038C140.118 370.321 162.99 370.321 181.554 381.038L273.109 433.897C291.673 444.615 303.109 464.423 303.109 485.859V591.577C303.109 613.013 291.673 632.82 273.109 643.538L181.554 696.397C162.99 707.115 140.119 707.115 121.554 696.397L30 643.538C11.4359 632.82 0 613.013 0 591.577V485.859C0 464.423 11.4359 444.615 30 433.897L121.554 381.038Z" fill="#303030"/>
<path d="M337.554 8.03848C356.119 -2.67949 378.99 -2.67949 397.554 8.03847L489.109 60.8975C507.673 71.6154 519.109 91.423 519.109 112.859V218.577C519.109 240.013 507.673 259.821 489.109 270.538L397.554 323.397C378.99 334.115 356.119 334.115 337.554 323.397L246 270.538C227.436 259.821 216 240.013 216 218.577V112.859C216 91.4231 227.436 71.6154 246 60.8975L337.554 8.03848Z" fill="#303030"/>
<path d="M554.554 132.038C573.119 121.321 595.99 121.321 614.554 132.038L706.109 184.897C724.673 195.615 736.109 215.423 736.109 236.859V342.577C736.109 364.013 724.673 383.821 706.109 394.538L614.554 447.397C595.99 458.115 573.119 458.115 554.554 447.397L463 394.538C444.436 383.821 433 364.013 433 342.577V236.859C433 215.423 444.436 195.615 463 184.897L554.554 132.038Z" fill="#808080"/>
<path d="M554.554 132.038C573.119 121.321 595.99 121.321 614.554 132.038L706.109 184.897C724.673 195.615 736.109 215.423 736.109 236.859V342.577C736.109 364.013 724.673 383.821 706.109 394.538L614.554 447.397C595.99 458.115 573.119 458.115 554.554 447.397L463 394.538C444.436 383.821 433 364.013 433 342.577V236.859C433 215.423 444.436 195.615 463 184.897L554.554 132.038Z" fill="#505050"/>
<path d="M121.554 132.038C140.118 121.321 162.99 121.321 181.554 132.038L273.109 184.897C291.673 195.615 303.109 215.423 303.109 236.859V342.577C303.109 364.013 291.673 383.821 273.109 394.538L181.554 447.397C162.99 458.115 140.119 458.115 121.554 447.397L30 394.538C11.4359 383.821 0 364.013 0 342.577V236.859C0 215.423 11.4359 195.615 30 184.897L121.554 132.038Z" fill="#505050"/>
<path d="M337.554 506.038C356.119 495.321 378.99 495.321 397.554 506.038L489.109 558.897C507.673 569.615 519.109 589.423 519.109 610.859V716.577C519.109 738.013 507.673 757.82 489.109 768.538L397.554 821.397C378.99 832.115 356.119 832.115 337.554 821.397L246 768.538C227.436 757.82 216 738.013 216 716.577V610.859C216 589.423 227.436 569.615 246 558.897L337.554 506.038Z" fill="#505050"/>
<path d="M337.554 269.038C356.119 258.321 378.99 258.321 397.554 269.038L489.109 321.897C507.673 332.615 519.109 352.423 519.109 373.859V479.577C519.109 501.013 507.673 520.82 489.109 531.538L397.554 584.397C378.99 595.115 356.119 595.115 337.554 584.397L246 531.538C227.436 520.82 216 501.013 216 479.577V373.859C216 352.423 227.436 332.615 246 321.897L337.554 269.038Z" fill="#808080"/>
<path d="M978.95 300.4C999.05 300.4 1019.45 304.9 1040.15 313.9L1028.9 341.8C1013.6 335.2 997.25 331.9 979.85 331.9C962.75 331.9 949.1 338.35 938.9 351.25C929 364.15 924.05 383.05 924.05 407.95C924.05 432.85 929.3 451.9 939.8 465.1C950.3 478.3 964.1 484.9 981.2 484.9C998.3 484.9 1016 480.7 1034.3 472.3L1042.85 502C1021.85 511.6 1000.55 516.4 978.95 516.4C951.05 516.4 928.25 506.35 910.55 486.25C893.15 465.85 884.45 439.75 884.45 407.95C884.45 375.85 893.15 349.9 910.55 330.1C928.25 310.3 951.05 300.4 978.95 300.4Z" fill="#808080"/>
<path d="M1168 329.65C1156.6 329.65 1146.7 332.2 1138.3 337.3C1130.2 342.4 1124.2 349 1120.3 357.1C1113.1 372.4 1109.5 388.75 1109.5 406.15C1109.5 460.15 1128.25 487.15 1165.75 487.15C1177.15 487.15 1186.9 484.6 1195 479.5C1203.1 474.4 1209.25 467.8 1213.45 459.7C1220.65 444.7 1224.25 428.35 1224.25 410.65C1224.25 356.65 1205.5 329.65 1168 329.65ZM1168 300.4C1201.3 300.4 1225.6 310.75 1240.9 331.45C1256.2 352.15 1263.85 379.15 1263.85 412.45C1263.85 436.45 1257.55 458.65 1244.95 479.05C1238.05 490.15 1227.7 499.15 1213.9 506.05C1200.1 512.95 1183.6 516.4 1164.4 516.4C1131.4 516.4 1107.4 506.5 1092.4 486.7C1077.4 466.9 1069.9 440.35 1069.9 407.05C1069.9 387.55 1072.9 371.05 1078.9 357.55C1085.2 344.05 1091.8 333.7 1098.7 326.5C1105.6 319 1115.05 312.85 1127.05 308.05C1139.05 302.95 1152.7 300.4 1168 300.4Z" fill="#808080"/>
<path d="M1350.11 329.2C1372.31 310 1396.91 300.4 1423.91 300.4C1450.91 300.4 1469.36 310.9 1479.26 331.9C1502.96 310.9 1527.86 300.4 1553.96 300.4C1573.16 300.4 1588.31 305.5 1599.41 315.7C1610.81 325.9 1616.51 339.25 1616.51 355.75V511H1578.26V357.55C1578.26 349.75 1575.41 343.75 1569.71 339.55C1564.01 335.35 1556.36 333.25 1546.76 333.25C1527.26 333.25 1506.41 341.2 1484.21 357.1V511H1445.96V357.55C1445.96 349.75 1443.11 343.75 1437.41 339.55C1431.71 335.35 1424.06 333.25 1414.46 333.25C1394.36 333.25 1373.81 340.9 1352.81 356.2V511H1314.56V305.8H1338.86L1350.11 329.2Z" fill="#808080"/>
<path d="M1758.06 485.8C1780.56 485.8 1797.96 478.15 1810.26 462.85C1822.56 447.55 1828.71 428.95 1828.71 407.05C1828.71 384.85 1823.31 367 1812.51 353.5C1802.01 340 1787.46 333.25 1768.86 333.25C1761.66 333.25 1753.11 335.35 1743.21 339.55C1733.31 343.75 1724.46 349.3 1716.66 356.2V477.7C1730.76 483.1 1744.56 485.8 1758.06 485.8ZM1716.66 614.5H1679.31V305.8H1703.61L1713.96 329.2C1735.86 310 1759.11 300.4 1783.71 300.4C1808.31 300.4 1828.41 310 1844.01 329.2C1859.61 348.4 1867.41 373.45 1867.41 404.35C1867.41 434.95 1858.26 461.35 1839.96 483.55C1821.96 505.45 1796.16 516.4 1762.56 516.4C1747.56 516.4 1732.26 514.3 1716.66 510.1V614.5Z" fill="#808080"/>
<path d="M2024.11 341.8C2008.81 335.2 1994.41 331.9 1980.91 331.9C1954.81 331.9 1941.76 339.85 1941.76 355.75C1941.76 369.55 1959.16 382.9 1993.96 395.8C2006.86 400.6 2018.71 408.1 2029.51 418.3C2040.61 428.5 2046.16 440.8 2046.16 455.2C2046.16 475.9 2039.41 491.35 2025.91 501.55C2012.41 511.45 1993.66 516.4 1969.66 516.4C1945.66 516.4 1922.26 509.8 1899.46 496.6L1910.71 468.7C1929.61 479.5 1951.06 484.9 1975.06 484.9C1985.26 484.9 1993.51 482.8 1999.81 478.6C2006.11 474.1 2009.26 468.1 2009.26 460.6C2009.26 453.1 2005.66 446.65 1998.46 441.25C1991.26 435.85 1982.56 431.05 1972.36 426.85C1962.16 422.65 1951.96 418.15 1941.76 413.35C1931.56 408.25 1922.86 401.2 1915.66 392.2C1908.46 383.2 1904.86 372.55 1904.86 360.25C1904.86 341.05 1911.31 326.35 1924.21 316.15C1937.41 305.65 1954.06 300.4 1974.16 300.4C1994.26 300.4 2014.66 304.9 2035.36 313.9L2024.11 341.8Z" fill="#808080"/>
<path d="M2172.07 300.4C2192.17 300.4 2212.57 304.9 2233.27 313.9L2222.02 341.8C2206.72 335.2 2190.37 331.9 2172.97 331.9C2155.87 331.9 2142.22 338.35 2132.02 351.25C2122.12 364.15 2117.17 383.05 2117.17 407.95C2117.17 432.85 2122.42 451.9 2132.92 465.1C2143.42 478.3 2157.22 484.9 2174.32 484.9C2191.42 484.9 2209.12 480.7 2227.42 472.3L2235.97 502C2214.97 511.6 2193.67 516.4 2172.07 516.4C2144.17 516.4 2121.37 506.35 2103.67 486.25C2086.27 465.85 2077.57 439.75 2077.57 407.95C2077.57 375.85 2086.27 349.9 2103.67 330.1C2121.37 310.3 2144.17 300.4 2172.07 300.4Z" fill="#808080"/>
<path d="M2361.11 329.65C2349.71 329.65 2339.81 332.2 2331.41 337.3C2323.31 342.4 2317.31 349 2313.41 357.1C2306.21 372.4 2302.61 388.75 2302.61 406.15C2302.61 460.15 2321.36 487.15 2358.86 487.15C2370.26 487.15 2380.01 484.6 2388.11 479.5C2396.21 474.4 2402.36 467.8 2406.56 459.7C2413.76 444.7 2417.36 428.35 2417.36 410.65C2417.36 356.65 2398.61 329.65 2361.11 329.65ZM2361.11 300.4C2394.41 300.4 2418.71 310.75 2434.01 331.45C2449.31 352.15 2456.96 379.15 2456.96 412.45C2456.96 436.45 2450.66 458.65 2438.06 479.05C2431.16 490.15 2420.81 499.15 2407.01 506.05C2393.21 512.95 2376.71 516.4 2357.51 516.4C2324.51 516.4 2300.51 506.5 2285.51 486.7C2270.51 466.9 2263.01 440.35 2263.01 407.05C2263.01 387.55 2266.01 371.05 2272.01 357.55C2278.31 344.05 2284.91 333.7 2291.81 326.5C2298.71 319 2308.16 312.85 2320.16 308.05C2332.16 302.95 2345.81 300.4 2361.11 300.4Z" fill="#808080"/>
<path d="M2507.68 305.8H2531.98L2543.23 341.8H2545.03C2561.53 320.5 2584.18 307.6 2612.98 303.1L2617.03 338.65C2602.93 339.55 2589.28 343.15 2576.08 349.45C2562.88 355.75 2552.83 364.15 2545.93 374.65V511H2507.68V305.8Z" fill="#808080"/>
<path d="M2731.97 484.9C2753.57 484.9 2775.17 478.45 2796.77 465.55L2809.82 492.55C2784.62 508.45 2757.62 516.4 2728.82 516.4C2700.32 516.4 2677.67 507.4 2660.87 489.4C2644.07 471.1 2635.67 444.85 2635.67 410.65C2635.67 376.45 2644.37 349.6 2661.77 330.1C2679.17 310.3 2702.27 300.4 2731.07 300.4C2757.17 300.4 2777.72 308.5 2792.72 324.7C2799.02 331.3 2804.27 340.9 2808.47 353.5C2812.97 366.1 2815.22 380.95 2815.22 398.05L2801.27 413.8H2673.92C2674.82 461.2 2694.17 484.9 2731.97 484.9ZM2777.42 385.45C2777.42 368.65 2773.07 355.15 2764.37 344.95C2755.67 334.75 2744.12 329.65 2729.72 329.65C2715.62 329.65 2703.62 334.75 2693.72 344.95C2683.82 354.85 2677.82 368.35 2675.72 385.45H2777.42Z" fill="#808080"/>
</svg>
